<?xml version="1.0" encoding="utf-8"?>
<!-- Generator: Adobe Illustrator 19.1.0, SVG Export Plug-In . SVG Version: 6.00 Build 0)  -->
<svg version="1.1" id="Layer_1" xmlns="http://www.w3.org/2000/svg" xmlns:xlink="http://www.w3.org/1999/xlink" x="0px" y="0px"
	 viewBox="62 172.2 500 323.8" style="enable-background:new 62 172.2 500 323.8;" xml:space="preserve">
<style type="text/css">
	.st0{fill:#D1D3D4;}
	.st1{fill:url(#SVGID_1_);}
	.st2{fill:url(#SVGID_2_);}
	.st3{fill:url(#SVGID_3_);}
	.st4{fill:url(#SVGID_4_);}
	.st5{fill:url(#SVGID_5_);}
	.st6{fill:url(#SVGID_6_);}
</style>
<g>
	<g>
		<g>
			
				<image style="overflow:visible;opacity:0.5;enable-background:new    ;" width="775" height="771" xlink:href="EAA2C4866D0EBA8B.png"  transform="matrix(0.2378 0 0 0.2388 234.4594 314.692)">
			</image>
			<g>
				<path class="st0" d="M403.5,408.8L364,369.2l0,0l-39.6-39.6c7,22.3,32.2,42.2-71.2,117.7c-8.1,5.9-2.4,9.8,10.2,22.4l0,0
					c12.6,12.6,16.6,18.2,22.4,10.2C361.3,376.7,381.3,401.8,403.5,408.8z"/>
			</g>
		</g>
		<g>
			
				<linearGradient id="SVGID_1_" gradientUnits="userSpaceOnUse" x1="-12.9351" y1="2442.9392" x2="-12.9351" y2="2300.6233" gradientTransform="matrix(0.7071 0.7071 0.7071 -0.7071 -1354.2557 2105.7488)">
				<stop  offset="0" style="stop-color:#FFFFFF"/>
				<stop  offset="1" style="stop-color:#C7C7C7"/>
			</linearGradient>
			<path class="st1" d="M375.4,380.7L364,369.2l0,0l-11.4-11.4c-18.9,39.2-102.9,96.4-102.9,96.4c1.3,3.8,13.7,15.6,13.7,15.6l0,0
				c0,0,11.8,12.4,15.6,13.7C279,483.5,336.3,399.5,375.4,380.7z"/>
		</g>
		
			<linearGradient id="SVGID_2_" gradientUnits="userSpaceOnUse" x1="-12.8644" y1="2442.8667" x2="-12.8644" y2="2420.2065" gradientTransform="matrix(0.7071 0.7071 0.7071 -0.7071 -1354.2557 2105.7488)">
			<stop  offset="0" style="stop-color:#FFFFFF"/>
			<stop  offset="1" style="stop-color:#EBEBEB"/>
		</linearGradient>
		<path class="st2" d="M364,369.2L364,369.2l-11.4-11.4c0,0-4.7,9.2-8.5,13.7c-3.4,3.9,4,13.7,4,13.7l0,0c0,0,9.8,7.4,13.7,4
			c4.5-3.9,13.7-8.5,13.7-8.5L364,369.2z"/>
		<g>
			
				<image style="overflow:visible;opacity:0.5;enable-background:new    ;" width="1100" height="1100" xlink:href="EAA2C4866D0EBA89.png"  transform="matrix(0.2393 0 0 0.2391 303.1568 167.0138)">
			</image>
			<g>
				
					<radialGradient id="SVGID_3_" cx="-12.9203" cy="2554.4863" r="110.2172" gradientTransform="matrix(0.7071 0.7071 0.7071 -0.7071 -1354.2557 2105.7488)" gradientUnits="userSpaceOnUse">
					<stop  offset="0" style="stop-color:#DCDCDC"/>
					<stop  offset="1" style="stop-color:#C4C4C4"/>
				</radialGradient>
				<path class="st3" d="M521.8,211.4L521.8,211.4c-85.2-85.1-236.1,33.1-197.4,118.3l39.6,39.6l0,0l39.6,39.6
					C488.7,447.5,606.9,296.6,521.8,211.4z"/>
			</g>
		</g>
	</g>
	<g>
		<g>
			
				<image style="overflow:visible;opacity:0.5;enable-background:new    ;" width="771" height="771" xlink:href="EAA2C4866D0EBA8F.png"  transform="matrix(0.2388 0 0 0.2391 206.606 314.6764)">
			</image>
			<g>
				<path class="st0" d="M300.7,329.7l-39.5,39.5l0,0l-39.6,39.6c22.3-7,42.2-32.2,117.7,71.2c5.9,8.1,9.8,2.4,22.4-10.2l0,0
					c12.6-12.6,18.2-16.6,10.2-22.4C268.6,371.9,293.7,352,300.7,329.7z"/>
			</g>
		</g>
		<g>
			
				<linearGradient id="SVGID_4_" gradientUnits="userSpaceOnUse" x1="-961.8081" y1="-1048.1853" x2="-961.8081" y2="-1190.5012" gradientTransform="matrix(0.7071 -0.7071 -0.7071 -0.7071 200.1227 -1052.0663)">
				<stop  offset="0" style="stop-color:#FFFFFF"/>
				<stop  offset="1" style="stop-color:#C7C7C7"/>
			</linearGradient>
			<path class="st4" d="M272.6,357.8l-11.4,11.4l0,0l-11.4,11.4c39.1,18.8,96.4,102.9,96.4,102.9c3.8-1.3,15.6-13.7,15.6-13.7l0,0
				c0,0,12.4-11.8,13.7-15.6C375.5,454.2,291.4,397,272.6,357.8z"/>
		</g>
		
			<linearGradient id="SVGID_5_" gradientUnits="userSpaceOnUse" x1="-961.7374" y1="-1048.1853" x2="-961.7374" y2="-1070.8453" gradientTransform="matrix(0.7071 -0.7071 -0.7071 -0.7071 200.1227 -1052.0663)">
			<stop  offset="0" style="stop-color:#FFFFFF"/>
			<stop  offset="1" style="stop-color:#EBEBEB"/>
		</linearGradient>
		<path class="st5" d="M261.2,369.2L261.2,369.2l-11.4,11.4c0,0,9.2,4.7,13.7,8.5c3.9,3.4,13.7-4,13.7-4l0,0c0,0,7.4-9.8,4-13.7
			c-3.9-4.5-8.5-13.7-8.5-13.7L261.2,369.2z"/>
		<g>
			
				<image style="overflow:visible;opacity:0.5;enable-background:new    ;" width="1100" height="1104" xlink:href="EAA2C4866D0EBA88.png"  transform="matrix(0.2391 0 0 0.2385 58.9279 166.9983)">
			</image>
			<g>
				
					<radialGradient id="SVGID_6_" cx="-961.864" cy="-936.5674" r="110.2172" gradientTransform="matrix(0.7071 -0.7071 -0.7071 -0.7071 200.1227 -1052.0663)" gradientUnits="userSpaceOnUse">
					<stop  offset="0" style="stop-color:#EE6640"/>
					<stop  offset="1" style="stop-color:#EF4628"/>
				</radialGradient>
				<path class="st6" d="M103.3,211.4L103.3,211.4c-85.1,85.2,33.1,236.1,118.3,197.4l39.6-39.6l0,0l39.6-39.6
					C339.4,244.5,188.5,126.3,103.3,211.4z"/>
			</g>
		</g>
	</g>
</g>
</svg>
