<?xml version="1.0" encoding="utf-8"?>
<!-- Generator: Adobe Illustrator 19.1.0, SVG Export Plug-In . SVG Version: 6.00 Build 0)  -->
<svg version="1.1" id="Layer_1" xmlns="http://www.w3.org/2000/svg" xmlns:xlink="http://www.w3.org/1999/xlink" x="0px" y="0px"
	 viewBox="-145 291.7 84.3 85.3" style="enable-background:new -145 291.7 84.3 85.3;" xml:space="preserve">
<g>
	<g>
		<path d="M-102.1,353.3l-9.9-9.9l0,0l-9.9-9.9c1.8,5.6,8.1,10.6-17.8,29.5c-2,1.5-0.6,2.5,2.5,5.6l0,0c3.2,3.2,4.2,4.6,5.6,2.5
			C-112.7,345.3-107.7,351.6-102.1,353.3z"/>
	</g>
	<g>
		<path d="M-109.1,346.3l-2.9-2.9l0,0l-2.9-2.9c-4.7,9.8-25.8,24.2-25.8,24.2c0.3,1,3.4,3.9,3.4,3.9l0,0c0,0,3,3.1,3.9,3.4
			C-133.3,372.1-118.9,351-109.1,346.3z"/>
	</g>
	<path d="M-112,343.4L-112,343.4l-2.9-2.9c0,0-1.2,2.3-2.1,3.4c-0.9,1,1,3.4,1,3.4l0,0c0,0,2.5,1.8,3.4,1c1.1-1,3.4-2.1,3.4-2.1
		L-112,343.4z"/>
	<g>
		<path d="M-72.4,303.9L-72.4,303.9c-21.4-21.3-59.2,8.3-49.5,29.7l9.9,9.9l0,0l9.9,9.9C-80.7,363-51.1,325.2-72.4,303.9z"/>
	</g>
</g>
</svg>
