<?xml version="1.0" encoding="utf-8"?>
<!-- Generator: Adobe Illustrator 19.1.0, SVG Export Plug-In . SVG Version: 6.00 Build 0)  -->
<svg version="1.1" id="Layer_1" xmlns="http://www.w3.org/2000/svg" xmlns:xlink="http://www.w3.org/1999/xlink" x="0px" y="0px"
	 viewBox="-597 498.7 84.3 85.3" style="enable-background:new -597 498.7 84.3 85.3;" xml:space="preserve">
<style type="text/css">
	.st0{fill:#EE4036;}
</style>
<g>
	<g>
		<path class="st0" d="M-526.1,578.1c1.4,2.1,2.4,0.7,5.6-2.5l0,0c3.1-3.1,4.5-4.1,2.5-5.6c-25.9-18.9-19.6-23.9-17.8-29.5l-9.9,9.9
			l0,0l-9.9,9.9C-550,558.6-545,552.3-526.1,578.1z"/>
	</g>
	<g>
		<path class="st0" d="M-524.3,579c0.9-0.3,3.9-3.4,3.9-3.4l0,0c0,0,3.1-2.9,3.4-3.9c0,0-21.1-14.4-25.8-24.2l-2.9,2.9l0,0l-2.9,2.9
			C-538.8,558-524.4,579.1-524.3,579z"/>
	</g>
	<path class="st0" d="M-548.5,553.2c0,0,2.3,1.1,3.4,2.1c0.9,0.8,3.4-1,3.4-1l0,0c0,0,1.9-2.4,1-3.4c-0.9-1.1-2.1-3.4-2.1-3.4
		l-2.9,2.9l0,0L-548.5,553.2z"/>
	<g>
		<path class="st0" d="M-555.6,560.4l9.9-9.9l0,0l9.9-9.9c9.7-21.4-28.1-51-49.5-29.7l0,0C-606.6,532.2-577,570-555.6,560.4z"/>
	</g>
</g>
</svg>
