<?xml version="1.0" encoding="utf-8"?>
<!-- Generator: Adobe Illustrator 19.1.0, SVG Export Plug-In . SVG Version: 6.00 Build 0)  -->
<svg version="1.1" id="Layer_1" xmlns="http://www.w3.org/2000/svg" xmlns:xlink="http://www.w3.org/1999/xlink" x="0px" y="0px"
	 viewBox="-597 498.7 84.3 85.3" style="enable-background:new -597 498.7 84.3 85.3;" xml:space="preserve">
<style type="text/css">
	.st0{fill:#00ADEE;}
</style>
<g>
	<g>
		<path class="st0" d="M-591.7,570c-2.1,1.4-0.7,2.4,2.5,5.6l0,0c3.1,3.1,4.1,4.5,5.6,2.5c18.9-25.9,23.9-19.6,29.5-17.8l-9.9-9.9
			l0,0l-9.9-9.9C-572.2,546.1-565.9,551.1-591.7,570z"/>
	</g>
	<g>
		<path class="st0" d="M-592.6,571.9c0.3,0.9,3.4,3.9,3.4,3.9l0,0c0,0,2.9,3.1,3.9,3.4c0,0,14.4-21.1,24.2-25.8l-2.9-2.9l0,0
			l-2.9-2.9C-571.6,557.4-592.7,571.7-592.6,571.9z"/>
	</g>
	<path class="st0" d="M-566.8,547.6c0,0-1.1,2.3-2.1,3.4c-0.8,0.9,1,3.4,1,3.4l0,0c0,0,2.4,1.9,3.4,1c1.1-0.9,3.4-2.1,3.4-2.1
		l-2.9-2.9l0,0L-566.8,547.6z"/>
	<g>
		<path class="st0" d="M-573.9,540.6l9.9,9.9l0,0l9.9,9.9c21.4,9.7,51-28.1,29.7-49.5l0,0C-545.8,489.5-583.6,519.1-573.9,540.6z"/>
	</g>
</g>
</svg>
