<?xml version="1.0" encoding="utf-8"?>
<!-- Generator: Adobe Illustrator 19.1.0, SVG Export Plug-In . SVG Version: 6.00 Build 0)  -->
<svg version="1.1" id="Layer_1" xmlns="http://www.w3.org/2000/svg" xmlns:xlink="http://www.w3.org/1999/xlink" x="0px" y="0px"
	 viewBox="-145 291.7 84.3 85.3" style="enable-background:new -145 291.7 84.3 85.3;" xml:space="preserve">
<style type="text/css">
	.st0{fill:#D1D3D4;}
	.st1{fill:url(#SVGID_1_);}
	.st2{fill:url(#SVGID_2_);}
	.st3{fill:url(#SVGID_3_);}
</style>
<g>
	<g>
		
			<image style="overflow:visible;opacity:0.5;enable-background:new    ;" width="771" height="771" xlink:href="106765F8F3F5C7DA.png"  transform="matrix(6.066781e-02 0 0 6.074690e-02 -107.4749 329.2251)">
		</image>
		<g>
			<path class="st0" d="M-83.6,333l-10,10l0,0l-10.1,10.1c5.7-1.8,10.7-8.2,29.9,18.1c1.5,2.1,2.5,0.6,5.7-2.6l0,0
				c3.2-3.2,4.6-4.2,2.6-5.7C-91.7,343.8-85.3,338.7-83.6,333z"/>
		</g>
	</g>
	<g>
		
			<linearGradient id="SVGID_1_" gradientUnits="userSpaceOnUse" x1="-1315.1251" y1="-1070.7211" x2="-1315.1251" y2="-1106.8835" gradientTransform="matrix(0.7071 -0.7071 -0.7071 -0.7071 79.2157 -1343.9521)">
			<stop  offset="0" style="stop-color:#FFFFFF"/>
			<stop  offset="1" style="stop-color:#C7C7C7"/>
		</linearGradient>
		<path class="st1" d="M-90.7,340.2l-2.9,2.9l0,0l-2.9,2.9c9.9,4.8,24.5,26.1,24.5,26.1c1-0.3,4-3.5,4-3.5l0,0c0,0,3.2-3,3.5-4
			C-64.6,364.7-85.9,350.1-90.7,340.2z"/>
	</g>
	
		<linearGradient id="SVGID_2_" gradientUnits="userSpaceOnUse" x1="-1315.1072" y1="-1070.7211" x2="-1315.1072" y2="-1076.479" gradientTransform="matrix(0.7071 -0.7071 -0.7071 -0.7071 79.2157 -1343.9521)">
		<stop  offset="0" style="stop-color:#FFFFFF"/>
		<stop  offset="1" style="stop-color:#EBEBEB"/>
	</linearGradient>
	<path class="st2" d="M-93.6,343.1L-93.6,343.1l-2.9,2.9c0,0,2.3,1.2,3.5,2.2c1,0.9,3.5-1,3.5-1l0,0c0,0,1.9-2.5,1-3.5
		c-1-1.1-2.2-3.5-2.2-3.5L-93.6,343.1z"/>
	<g>
		
			<image style="overflow:visible;opacity:0.5;enable-background:new    ;" width="1100" height="1104" xlink:href="106765F8F3F5C7DE.png"  transform="matrix(6.076243e-02 0 0 6.059752e-02 -145 291.7)">
		</image>
		<g>
			
				<radialGradient id="SVGID_3_" cx="-1315.1393" cy="-1042.3588" r="28.0063" gradientTransform="matrix(0.7071 -0.7071 -0.7071 -0.7071 79.2157 -1343.9521)" gradientUnits="userSpaceOnUse">
				<stop  offset="0" style="stop-color:#EE6640"/>
				<stop  offset="1" style="stop-color:#EF4628"/>
			</radialGradient>
			<path class="st3" d="M-133.7,303L-133.7,303c-21.6,21.6,8.4,60,30.1,50.2l10.1-10.1l0,0l10.1-10.1
				C-73.7,311.4-112.1,281.4-133.7,303z"/>
		</g>
	</g>
</g>
</svg>
