<?xml version="1.0" encoding="utf-8"?>
<!-- Generator: Adobe Illustrator 19.1.0, SVG Export Plug-In . SVG Version: 6.00 Build 0)  -->
<svg version="1.1" id="Layer_1" xmlns="http://www.w3.org/2000/svg" xmlns:xlink="http://www.w3.org/1999/xlink" x="0px" y="0px"
	 viewBox="-145 291.7 84.3 85.3" style="enable-background:new -145 291.7 84.3 85.3;" xml:space="preserve">
<style type="text/css">
	.st0{fill:#FFFFFF;}
</style>
<g>
	<g>
		<path class="st0" d="M-83.8,333.5l-9.9,9.9l0,0l-9.9,9.9c5.6-1.8,10.6-8.1,29.5,17.8c1.5,2,2.5,0.6,5.6-2.5l0,0
			c3.2-3.2,4.6-4.2,2.5-5.6C-91.8,344.1-85.5,339.1-83.8,333.5z"/>
	</g>
	<g>
		<path class="st0" d="M-90.8,340.6l-2.9,2.9l0,0l-2.9,2.9c9.8,4.7,24.2,25.8,24.2,25.8c1-0.3,3.9-3.4,3.9-3.4l0,0
			c0,0,3.1-3,3.4-3.9C-65,364.7-86.1,350.4-90.8,340.6z"/>
	</g>
	<path class="st0" d="M-93.7,343.4L-93.7,343.4l-2.9,2.9c0,0,2.3,1.2,3.4,2.1c1,0.9,3.4-1,3.4-1l0,0c0,0,1.8-2.5,1-3.4
		c-1-1.1-2.1-3.4-2.1-3.4L-93.7,343.4z"/>
	<g>
		<path class="st0" d="M-133.3,303.9L-133.3,303.9c-21.3,21.4,8.3,59.2,29.7,49.5l9.9-9.9l0,0l9.9-9.9
			C-74.1,312.1-111.9,282.5-133.3,303.9z"/>
	</g>
</g>
</svg>
